<svg width="220" height="28" viewBox="0 0 220 28" fill="none" xmlns="http://www.w3.org/2000/svg">
<g clip-path="url(#clip0_1602_3)">
<path d="M57.9216 19.1974C57.9216 20.7405 57.9216 22.2749 57.9216 23.8181C57.9528 24.2668 57.8867 24.717 57.7275 25.1383C57.5683 25.5596 57.3197 25.9421 56.9987 26.2602C56.6776 26.5783 56.2914 26.8245 55.8662 26.9822C55.441 27.1399 54.9866 27.2055 54.5336 27.1746C52.1576 27.1746 49.7816 27.1746 47.4056 27.1746C46.6479 27.1794 45.893 27.0826 45.1616 26.8869C42.3984 26.1022 40.7616 24.1929 40.6912 21.6559C40.5776 20.3133 40.9157 18.9712 41.6527 17.8389C42.3897 16.7066 43.4843 15.8477 44.7656 15.3963C45.9123 15.0344 47.0908 14.7804 48.2856 14.6378C48.5056 14.6378 48.7872 14.8558 49.0424 14.9691C48.8205 15.1854 48.565 15.365 48.2856 15.5009C47.0074 15.7518 45.751 16.1016 44.528 16.5471C43.4028 17.0769 42.5082 17.991 42.0087 19.1217C41.5092 20.2525 41.4382 21.5237 41.8088 22.7021C42.1766 23.7642 42.8728 24.6844 43.7985 25.3323C44.7242 25.9802 45.8323 26.3228 46.9656 26.3115C49.6056 26.3115 52.2456 26.3115 54.8856 26.3115C55.1804 26.3013 55.4702 26.2337 55.7385 26.1126C56.0069 25.9914 56.2485 25.819 56.4496 25.6052C56.6506 25.3915 56.8072 25.1405 56.9102 24.8668C57.0133 24.593 57.061 24.3018 57.0504 24.0099C57.0504 20.3569 57.0504 16.6953 56.8568 13.0511C56.716 10.2962 54.8504 8.42175 51.9728 7.91609C49.8926 7.49919 47.7351 7.68691 45.76 8.45663C44.9215 8.85495 44.1402 9.36215 43.4368 9.96487C43.3261 10.0402 43.2355 10.141 43.173 10.2587C43.1104 10.3764 43.0777 10.5075 43.0777 10.6405C43.0777 10.7736 43.1104 10.9046 43.173 11.0223C43.2355 11.14 43.3261 11.2409 43.4368 11.3162L43.6216 11.508C44.9152 12.8506 44.8712 12.7634 46.552 11.9962C47.5152 11.5239 48.5749 11.2764 49.6496 11.2726C51.9464 11.3685 53.0552 12.5455 53.1696 14.8994C53.284 16.9568 53.2224 19.0231 53.1696 21.0805C53.1779 21.3146 53.1385 21.5479 53.0537 21.7666C52.969 21.9852 52.8406 22.1847 52.6764 22.3531C52.5121 22.5216 52.3153 22.6555 52.0976 22.7469C51.88 22.8383 51.646 22.8854 51.4096 22.8852C50.1522 22.955 48.8918 22.955 47.6344 22.8852C47.3981 22.8934 47.1626 22.8544 46.9419 22.7704C46.7212 22.6865 46.5199 22.5593 46.3499 22.3966C46.1799 22.2339 46.0447 22.0389 45.9524 21.8232C45.8601 21.6076 45.8127 21.3758 45.8128 21.1416C45.76 19.9995 46.1472 19.5549 47.4232 19.2759C47.5112 19.2759 47.5904 19.2236 47.6784 19.2149C49.94 19.1277 49.6408 18.7702 49.588 16.9307C49.5525 16.35 49.5525 15.7677 49.588 15.1871C49.588 14.9778 49.8784 14.786 50.0368 14.5855C50.1688 14.7773 50.3976 14.9604 50.4152 15.1609C50.5032 16.1373 50.5472 17.1312 50.556 18.1164C50.5767 18.3575 50.5466 18.6003 50.4675 18.8292C50.3884 19.0582 50.2621 19.2683 50.0965 19.4463C49.931 19.6242 49.7299 19.7661 49.506 19.8628C49.2821 19.9596 49.0402 20.0091 48.796 20.0082C48.3304 20.0247 47.869 20.1009 47.4232 20.2349C47.124 20.3657 46.7192 20.7841 46.7456 21.0108C46.772 21.2375 47.1768 21.8826 47.4496 21.8826C48.7915 21.9741 50.1381 21.9741 51.48 21.8826C51.7616 21.8826 52.2192 21.3072 52.228 21.0108C52.3339 18.9779 52.3339 16.941 52.228 14.9081C52.0784 12.6413 50.468 11.6039 48.1536 12.249C47.4386 12.4952 46.763 12.8416 46.1472 13.2778C45.9947 13.4276 45.8113 13.543 45.6095 13.6159C45.4077 13.6888 45.1923 13.7176 44.9783 13.7002C44.7642 13.6828 44.5564 13.6197 44.3693 13.5151C44.1822 13.4106 44.0202 13.2672 43.8944 13.0947C43.5424 12.746 43.1992 12.3885 42.856 12.0311C41.8528 10.9675 41.9144 10.0346 43.0056 9.04074C44.6814 7.59688 46.8304 6.80665 49.0512 6.81761C50.2306 6.75934 51.4127 6.84425 52.5712 7.07044C54.0002 7.31567 55.3005 8.04043 56.2539 9.12309C57.2073 10.2057 57.7558 11.5804 57.8072 13.0162C57.9304 15.065 57.8072 17.1312 57.8072 19.1887L57.9216 19.1974Z" fill="white"/>
<path d="M24.6664 18.5262C24.6664 20.1826 24.6664 21.8391 24.6664 23.4955C24.705 24.0185 24.5738 24.54 24.292 24.9839C24.0102 25.4278 23.5926 25.7708 23.1 25.9628C21.2605 26.8037 19.2789 27.2974 17.2568 27.4187C14.9633 27.7579 12.6271 27.69 10.3576 27.2182C4.87518 25.7361 1.68079 21.9873 0.422395 16.6779C-0.136584 14.6082 -0.173736 12.4342 0.314221 10.347C0.802178 8.25979 1.80029 6.32331 3.22079 4.70785C5.14924 2.56052 7.79043 1.1687 10.6656 0.78467C14.3353 0.0339636 18.152 0.493231 21.5336 2.0924C21.639 2.14238 21.7418 2.19767 21.8416 2.25804C23.9624 3.3391 24.2528 4.8735 22.6248 6.45149C21.9912 7.08791 21.4808 7.85511 20.8648 8.50898C20.6976 8.68334 20.328 8.67462 20.064 8.75308C20.108 8.48282 20.064 8.1341 20.2312 7.9423C20.9264 7.07048 21.692 6.19866 22.4048 5.32685C22.5392 5.21591 22.644 5.07387 22.7098 4.91329C22.7756 4.7527 22.8005 4.57852 22.7823 4.40614C22.764 4.23376 22.7031 4.06851 22.6051 3.92498C22.507 3.78144 22.3748 3.66406 22.22 3.58321C17.1512 0.209276 8.77358 0.488252 4.47918 4.70785C0.712782 8.41308 0.0792057 12.9378 1.69841 17.7415C3.31761 22.5452 6.44158 25.7099 11.572 26.4597C15.1268 26.9961 18.7609 26.627 22.132 25.3874C23.5488 24.8643 23.7688 24.4632 23.7952 22.9899C23.7952 19.9472 23.9008 16.8871 23.9536 13.8445C23.9536 12.4583 23.6632 12.1445 22.2728 12.1445C20.3368 12.1445 18.4008 12.1445 16.4648 12.1445C15.3384 12.1445 14.9952 12.4845 14.9864 13.5829C14.9864 13.7573 14.9864 13.9317 14.9864 14.106C14.9864 16.024 14.9864 16.0066 16.9048 16.1548C17.16 16.1548 17.3888 16.4425 17.6264 16.5907C17.3888 16.7477 17.16 17.0179 16.9136 17.0354C14.8192 17.2097 14.0712 16.5123 14.0624 14.4199C14.0624 14.106 14.0624 13.7835 14.0624 13.4609C14.0624 11.9352 14.8016 11.2465 16.3504 11.2465H22.5896C22.8975 11.2054 23.2109 11.2358 23.5049 11.3352C23.799 11.4345 24.0657 11.6002 24.2841 11.8191C24.5025 12.0381 24.6667 12.3042 24.7635 12.5967C24.8604 12.8892 24.8874 13.1999 24.8424 13.5045V18.4651L24.6664 18.5262Z" fill="white"/>
<path d="M69.8896 7.97711C71.5047 7.93699 73.1071 8.26822 74.5712 8.94483C76.2256 9.75562 76.4544 11.0285 75.2224 12.3624L74.6856 12.9378C73.6912 13.9927 72.9256 14.045 71.6232 13.5132C70.8392 13.2335 70.0098 13.1005 69.1768 13.1208C68.8776 13.1208 68.5784 13.6091 68.2968 13.8793C68.552 14.1409 68.7632 14.5506 69.0712 14.6465C70.488 15.0911 71.9488 15.3963 73.3744 15.8322C75.5744 16.5122 77.1496 17.8287 77.4312 20.2349C77.748 22.9462 76.6832 25.1083 74.2984 26.1981C72.6345 26.9674 70.8226 27.3719 68.9865 27.3839C67.1504 27.396 65.3332 27.0153 63.6592 26.2678C62.0048 25.5791 61.7408 24.0883 62.8936 22.7196C63.2022 22.331 63.5469 21.9719 63.9232 21.6472C64.064 21.5339 64.372 21.6472 64.6008 21.5949C64.6008 21.8216 64.6008 22.1006 64.504 22.2662C64.2738 22.5774 64.0177 22.8691 63.7384 23.138C62.7616 24.2278 62.9288 25.0386 64.3104 25.6053C66.1557 26.3785 68.1776 26.6436 70.1624 26.3725C71.4042 26.2205 72.6203 25.9069 73.7792 25.4396C74.7185 25.0716 75.5054 24.401 76.013 23.5359C76.5207 22.6708 76.7195 21.6615 76.5776 20.6708C76.5334 19.778 76.1995 18.9233 75.6256 18.2337C75.0516 17.5441 74.2682 17.0565 73.392 16.8435C72.204 16.4425 70.972 16.1984 69.7576 15.8671C69.2402 15.7813 68.7443 15.5978 68.2968 15.3265C67.8409 15.007 67.5259 14.5265 67.4168 13.9839C67.4395 13.7076 67.523 13.4396 67.6613 13.1986C67.7996 12.9577 67.9895 12.7496 68.2176 12.589C68.7803 12.2702 69.4174 12.1025 70.0656 12.1025C70.7139 12.1025 71.3509 12.2702 71.9136 12.589C72.224 12.7084 72.5561 12.7623 72.8888 12.7472C73.2214 12.7322 73.5472 12.6486 73.8454 12.5017C74.1435 12.3548 74.4075 12.148 74.6204 11.8943C74.8332 11.6406 74.9903 11.3457 75.0816 11.0285C75.0704 10.8099 75.0082 10.597 74.8998 10.4063C74.7914 10.2157 74.6397 10.0526 74.4568 9.92999C71.984 8.37815 67.1792 8.60482 64.8208 10.3049C64.0342 10.8741 63.4316 11.6577 63.0864 12.56C62.7411 13.4624 62.668 14.4448 62.876 15.3876C63.1136 17.1312 64.3896 18.0815 65.9648 18.6046C67.1 18.9795 68.2792 19.1974 69.432 19.4764C69.969 19.6169 70.4954 19.7946 71.0072 20.0082C71.3162 20.1276 71.5787 20.3417 71.7563 20.6191C71.934 20.8966 72.0176 21.223 71.995 21.5508C71.9724 21.8787 71.8448 22.1908 71.6308 22.4418C71.4167 22.6928 71.1273 22.8695 70.8048 22.9462C68.8776 23.5391 67.1792 22.8765 65.5248 21.9436C65.3928 21.8739 65.4016 21.56 65.34 21.3595C65.5688 21.3159 65.8416 21.1677 66.0264 21.2375C66.6219 21.5417 67.2396 21.801 67.8744 22.0134C68.6999 22.1516 69.5403 22.1809 70.3736 22.1006C70.62 22.1006 70.9632 21.717 71.0336 21.4467C71.104 21.1764 70.7168 20.8887 70.4704 20.8103C69.388 20.4528 68.288 20.1651 67.188 19.86C66.8536 19.7641 66.5104 19.7118 66.1672 19.6159C63.5272 18.8836 62.1368 17.3753 61.8816 15.0388C61.709 13.8201 61.9324 12.5786 62.5193 11.494C63.1063 10.4094 64.0263 9.53799 65.1464 9.00585C66.6161 8.27643 68.2467 7.92279 69.8896 7.97711Z" fill="white"/>
<path d="M86.6888 27.3751C85.3465 27.1413 84.0185 26.8328 82.7112 26.451C80.5816 25.7535 80.2384 24.1494 81.7168 22.4929C81.982 22.1757 82.2766 21.8838 82.5968 21.6211C82.7376 21.5165 83.0016 21.5775 83.2128 21.5688C83.2128 21.7954 83.2832 22.0832 83.2128 22.2401C82.9488 22.615 82.5792 22.9201 82.28 23.2775C81.532 24.1494 81.6728 24.9689 82.72 25.4571C84.6169 26.3318 86.7314 26.635 88.8008 26.3289C90.1868 26.1508 91.5389 25.7719 92.8136 25.2043C94.6968 24.3324 95.4096 22.6324 95.26 20.5836C95.2286 19.7621 94.9398 18.9705 94.4335 18.3191C93.9273 17.6676 93.2289 17.1884 92.4352 16.9481C91.1504 16.4861 89.7952 16.2071 88.484 15.8322C88.0088 15.6927 87.5336 15.5532 87.076 15.3701C86.7631 15.2735 86.4919 15.076 86.3053 14.809C86.1187 14.542 86.0276 14.2209 86.0464 13.8968C86.0446 13.574 86.1422 13.2584 86.3262 12.9921C86.5102 12.7257 86.7717 12.5212 87.076 12.406C87.6392 12.1752 88.2471 12.0711 88.8558 12.1013C89.4645 12.1314 90.0589 12.295 90.596 12.5803C90.9106 12.6864 91.2437 12.7281 91.575 12.7028C91.9064 12.6776 92.2291 12.586 92.5236 12.4336C92.8182 12.2811 93.0785 12.0711 93.2886 11.8161C93.4988 11.5611 93.6545 11.2664 93.7464 10.95C93.732 10.7438 93.6697 10.5437 93.5643 10.3653C93.459 10.1868 93.3135 10.0349 93.1392 9.92129C90.4024 8.41304 85.668 8.41305 83.1512 10.5141C82.4449 11.1136 81.9203 11.8956 81.6359 12.773C81.3516 13.6503 81.3187 14.5887 81.5408 15.4835C81.8136 17.2271 83.1072 18.0989 84.656 18.5784C85.9584 18.9969 87.296 19.2759 88.6336 19.6246C90.1296 20.0344 90.7456 20.6621 90.6312 21.6385C90.5168 22.615 89.6104 23.1293 88.1144 23.1642C86.7893 23.139 85.4962 22.7562 84.3744 22.057C84.1808 21.9437 84.1104 21.6211 83.9872 21.3944C84.2722 21.3093 84.57 21.2739 84.8672 21.2898C85.976 21.5862 87.076 21.9437 88.1848 22.2575C88.2532 22.2856 88.3264 22.3 88.4004 22.3C88.4744 22.3 88.5476 22.2856 88.616 22.2575C89.0208 22.0396 89.3992 21.7693 89.7864 21.5252C89.4608 21.2375 89.188 20.8103 88.8096 20.697C87.56 20.2959 86.2752 20.0082 85.008 19.6682C82.236 18.9272 80.7928 17.3753 80.608 14.9342C80.4528 13.6963 80.7079 12.4419 81.3348 11.36C81.9618 10.2782 82.9266 9.42751 84.084 8.93614C85.484 8.29375 87.0057 7.95302 88.5484 7.93648C90.0912 7.91995 91.6199 8.228 93.0336 8.84024C95.04 9.65103 95.2336 10.9326 93.8168 12.5455C92.5848 13.9491 91.5816 14.2106 89.9976 13.3563C89.2622 13.106 88.4739 13.0489 87.7096 13.1906C87.4632 13.1906 87.1112 13.6527 87.0584 13.9404C87.0056 14.2281 87.4016 14.5332 87.6656 14.6117C88.6864 14.9517 89.7424 15.1958 90.7808 15.4835C91.2648 15.6143 91.7488 15.7102 92.2152 15.8758C94.3448 16.6256 95.8936 17.9246 96.1488 20.2959C96.349 21.4514 96.1719 22.6401 95.6433 23.689C95.1147 24.7379 94.2622 25.5925 93.2096 26.1284C91.3792 27.0787 89.452 27.2792 86.6888 27.3751Z" fill="white"/>
<path d="M156.235 12.0485C156.235 8.79666 156.235 5.54477 156.235 2.29289C156.235 0.662594 156.878 0.0174534 158.506 0.0087352C159.148 0.0087352 159.79 0.0087352 160.442 0.0087352C160.7 -0.0157268 160.962 0.0169272 161.206 0.104356C161.451 0.191785 161.673 0.331817 161.856 0.514378C162.04 0.696939 162.18 0.917495 162.267 1.16019C162.354 1.40289 162.386 1.66171 162.36 1.91802C162.36 4.5945 162.36 7.26226 162.36 9.93003C162.36 10.2003 162.07 10.4618 161.92 10.7234C161.779 10.4531 161.515 10.1829 161.506 9.90387C161.506 7.3756 161.506 4.84733 161.506 2.32777C161.506 1.17697 161.269 0.932856 160.134 0.91542C159.606 0.91542 159.078 0.91542 158.55 0.91542C157.414 0.91542 157.186 1.16826 157.177 2.32777C157.177 3.77499 157.177 5.23093 157.177 6.68686L157.23 21.6734C157.23 24.7858 158.787 26.294 161.946 26.294H166.602C171.002 26.294 173.853 23.914 174.636 19.6769C175.019 17.6449 174.644 15.5441 173.58 13.7656C172.517 11.987 170.837 10.6518 168.854 10.0085C167.296 9.56956 165.643 9.58469 164.094 10.0521C163.803 10.1305 163.442 9.93873 163.117 9.87771C163.363 9.65103 163.574 9.30231 163.856 9.21513C169.866 7.30585 175.745 11.8829 175.639 18.3605C175.56 23.5914 171.908 27.1746 166.619 27.1833H161.603C158.374 27.1833 156.323 25.1868 156.323 21.9524C156.323 18.7179 156.323 15.3353 156.323 12.0224L156.235 12.0485Z" fill="white"/>
<path d="M213.488 19.1277C215.063 19.1277 216.647 19.1277 218.231 19.1277C218.742 19.1277 219.111 19.0405 219.111 18.4302C219.212 16.395 218.791 14.3675 217.888 12.5367C217.357 11.5671 216.602 10.7359 215.684 10.1115C214.766 9.48709 213.712 9.08727 212.608 8.94486C210.933 8.62428 209.199 8.80842 207.63 9.47353C206.062 10.1386 204.73 11.2542 203.808 12.6762C201.687 16.3728 202.462 21.7257 205.498 24.2714C207.196 25.5771 209.284 26.2859 211.433 26.2859C213.583 26.2859 215.671 25.5771 217.369 24.2714C217.967 23.7571 218.011 23.3996 217.369 22.9375C216.72 22.4914 216.103 22.002 215.521 21.4729C215.362 21.3334 215.371 21.0021 215.301 20.758C215.565 20.758 215.882 20.7057 216.066 20.8277C216.788 21.3247 217.474 21.8739 218.161 22.4144C218.364 22.5228 218.536 22.6813 218.66 22.8745C218.784 23.0678 218.855 23.2893 218.868 23.5179C218.88 23.7464 218.833 23.9743 218.731 24.1796C218.628 24.3848 218.475 24.5606 218.284 24.6899C217.354 25.5602 216.255 26.2333 215.054 26.668C213.852 27.1028 212.574 27.29 211.297 27.2182C207.495 27.0787 204.362 25.6315 202.734 22.0396C201.857 20.2998 201.496 18.3493 201.692 16.4143C201.888 14.4793 202.634 12.6391 203.843 11.107C204.558 10.1771 205.475 9.41845 206.526 8.88724C207.577 8.35602 208.736 8.06584 209.915 8.03818C211.371 7.94248 212.833 8.08084 214.245 8.44792C217.501 9.31974 219.12 11.7783 219.745 14.9255C219.945 16.0369 220.056 17.1621 220.079 18.2908C220.079 19.5898 219.648 20.0344 218.319 20.0344C215.248 20.0344 212.159 20.0344 209.097 20.0344C208.819 20.0712 208.547 20.1415 208.287 20.2436C208.372 20.5489 208.496 20.842 208.657 21.1154C208.95 21.4644 209.327 21.7356 209.752 21.9045C210.178 22.0734 210.639 22.1348 211.094 22.0832C212.115 21.9785 213.11 21.6124 214.13 21.4031C214.386 21.3942 214.641 21.4236 214.887 21.4903C214.79 21.6996 214.755 21.9873 214.597 22.1267C212.89 23.6088 209 23.2165 207.759 21.4031C207.476 20.9602 207.367 20.4299 207.451 19.9123C207.592 19.2759 208.234 19.1451 208.868 19.1539C210.382 19.1364 211.93 19.1277 213.488 19.1277Z" fill="white"/>
<path d="M99.9504 14.6814V4.75139C99.9504 2.7898 100.83 1.90926 102.863 1.90054H106.911C107.458 1.86168 108.002 2.00661 108.456 2.31192C108.909 2.61723 109.246 3.0651 109.41 3.58315C111.17 8.15148 112.93 12.7256 114.69 17.3056C114.787 17.5671 114.611 17.942 114.567 18.2558C114.33 18.0204 113.969 17.8286 113.863 17.5497C112.103 13.1906 110.449 8.73559 108.759 4.32419C108.266 3.04262 107.879 2.79851 106.55 2.79851C105.222 2.79851 103.972 2.79851 102.687 2.79851C101.402 2.79851 100.927 3.30416 100.927 4.49855C100.927 11.2639 100.927 18.0292 100.927 24.7945C100.927 25.8319 101.253 26.1371 102.291 26.1719C102.758 26.1719 103.224 26.1719 103.699 26.1719C104.887 26.1719 105.213 25.8319 105.213 24.6637C105.213 20.8277 105.213 16.9917 105.213 13.1644C105.213 12.7547 104.949 12.0485 105.644 12.0398C106.339 12.0311 106.11 12.7808 106.11 13.1993C106.11 17.0091 106.11 20.8103 106.11 24.6114C106.11 26.4422 105.415 27.1222 103.567 27.1309H102.423C100.725 27.1309 99.9416 26.3637 99.9328 24.6899L99.9504 14.6814Z" fill="white"/>
<path d="M128.955 14.7075C128.955 17.9972 128.955 21.2781 128.955 24.5504C128.998 24.8769 128.966 25.2088 128.861 25.5212C128.756 25.8336 128.581 26.1184 128.349 26.3542C128.117 26.5899 127.834 26.7705 127.521 26.8824C127.209 26.9943 126.875 27.0346 126.544 27.0002C125.902 27.0002 125.259 27.0002 124.617 27.0002C124.343 27.0071 124.071 26.9605 123.816 26.8629C123.561 26.7653 123.327 26.6188 123.13 26.4317C122.932 26.2445 122.773 26.0205 122.663 25.7725C122.553 25.5244 122.493 25.2572 122.487 24.9863C122.487 20.6969 122.487 16.3989 122.487 12.1008C122.487 11.9003 122.769 11.6911 122.918 11.4818C123.068 11.7521 123.341 12.0136 123.341 12.2752C123.341 16.2507 123.341 20.2262 123.341 24.2016C123.324 24.549 123.365 24.8967 123.464 25.2304C123.552 25.4832 123.781 25.8668 123.966 25.8842C125.108 25.9758 126.255 25.9758 127.398 25.8842C127.653 25.8842 128.022 25.1083 128.022 24.6899C127.97 17.9245 127.887 11.1621 127.776 4.40265C127.803 4.16186 127.773 3.91821 127.69 3.69037C127.607 3.46254 127.473 3.25657 127.297 3.08825C127.121 2.91993 126.909 2.79373 126.676 2.71933C126.443 2.64493 126.196 2.62429 125.954 2.65902C124.599 2.65902 123.253 2.65902 121.906 2.65902C121.467 2.62035 121.027 2.73513 120.664 2.98349C120.301 3.23184 120.037 3.59817 119.918 4.01906C118.615 7.45402 117.278 10.8803 115.931 14.3065C115.87 14.4721 115.843 14.6814 115.729 14.786C115.512 14.9616 115.28 15.1163 115.034 15.2481C114.99 14.9778 114.814 14.6552 114.902 14.4286C116.31 10.7495 117.726 7.07041 119.178 3.40878C119.363 2.89708 119.712 2.4592 120.171 2.16175C120.63 1.86431 121.174 1.7236 121.722 1.76104H125.858C126.238 1.72846 126.622 1.7782 126.981 1.90682C127.341 2.03543 127.668 2.23986 127.94 2.50598C128.212 2.7721 128.422 3.09355 128.557 3.44812C128.691 3.80268 128.746 4.18192 128.718 4.55958C128.77 7.43658 128.77 10.3049 128.797 13.1819C128.797 13.705 128.797 14.228 128.797 14.7424L128.955 14.7075Z" fill="white"/>
<path d="M28.7144 10.9501C28.7144 8.10793 28.7144 5.2658 28.7144 2.42368C28.6696 2.13332 28.6927 1.83665 28.7819 1.55653C28.8711 1.27641 29.0241 1.02034 29.229 0.808055C29.4339 0.595773 29.6853 0.432954 29.9638 0.332157C30.2423 0.231361 30.5404 0.195277 30.8352 0.226692C31.5974 0.187375 32.361 0.187375 33.1232 0.226692C33.3651 0.226104 33.6045 0.274913 33.8264 0.37007C34.0484 0.465228 34.2482 0.604692 34.4134 0.779759C34.5785 0.954827 34.7055 1.16174 34.7863 1.38758C34.8671 1.61342 34.9001 1.85335 34.8832 2.09238C34.9273 2.43974 34.9273 2.7912 34.8832 3.13856C34.781 3.42526 34.642 3.69777 34.4696 3.94936C34.283 3.67618 34.1266 3.38389 34.0032 3.07754C33.9671 2.78803 33.9671 2.49523 34.0032 2.20572C34.0212 2.05984 34.0058 1.9118 33.9581 1.77265C33.9103 1.6335 33.8315 1.50683 33.7274 1.40207C33.6234 1.29731 33.4968 1.21717 33.3572 1.16763C33.2175 1.11809 33.0683 1.10042 32.9208 1.11595C32.1904 1.11595 31.46 1.11595 30.7296 1.11595C30.5895 1.10475 30.4486 1.12311 30.3162 1.16981C30.1837 1.21652 30.0628 1.2905 29.9614 1.38689C29.8599 1.48328 29.7803 1.59987 29.7276 1.72899C29.675 1.85811 29.6506 1.99682 29.656 2.13597C29.656 2.39752 29.656 2.65906 29.656 2.92061C29.656 8.15151 29.656 13.4057 29.656 18.6831C29.656 22.8765 31.7328 25.4135 35.816 26.1894C36.8192 26.3812 37.2416 26.0499 37.2856 25.0299C37.2856 24.6463 37.2856 24.2714 37.2856 23.8965C37.2856 22.4144 37.2856 22.4144 35.8952 21.9349C35.2962 21.7225 34.7857 21.3183 34.4446 20.7862C34.1036 20.254 33.9513 19.6244 34.012 18.9969C33.9592 15.9456 34.012 12.8942 34.012 9.85155C34.012 8.51767 34.012 7.1838 34.012 5.84991C34.012 5.5535 34.3024 5.27451 34.4608 4.9781C34.6489 5.24148 34.7861 5.53706 34.8656 5.84991C34.8656 9.91258 34.8656 13.9753 34.8656 18.0554C34.8699 18.6407 34.9287 19.2244 35.0416 19.799C35.1121 20.1574 35.2944 20.4849 35.5629 20.7351C35.8313 20.9854 36.1722 21.1459 36.5376 21.1939C36.9957 21.24 37.4192 21.4562 37.7229 21.7992C38.0266 22.1421 38.1879 22.5862 38.1744 23.0422C38.2184 23.7942 38.2184 24.5481 38.1744 25.3002C38.1782 25.5697 38.1221 25.8368 38.0102 26.0825C37.8983 26.3281 37.7332 26.5465 37.5266 26.722C37.3201 26.8975 37.0772 27.0258 36.815 27.098C36.5529 27.1702 36.2779 27.1844 36.0096 27.1397C34.0465 26.9937 32.21 26.1238 30.8627 24.7019C29.5154 23.2799 28.7551 21.4092 28.732 19.459C28.6792 16.6169 28.732 13.7747 28.732 10.9239L28.7144 10.9501Z" fill="white"/>
<path d="M189.631 10.9152C189.631 8.09921 189.631 5.28324 189.631 2.47599C189.631 0.932872 190.309 0.261571 191.875 0.226698C192.579 0.226698 193.283 0.226698 193.987 0.226698C194.24 0.214267 194.492 0.25585 194.727 0.348633C194.961 0.441415 195.173 0.583223 195.348 0.764388C195.522 0.945552 195.655 1.16183 195.738 1.39851C195.821 1.63519 195.851 1.88672 195.826 2.13598C195.871 2.54165 195.871 2.95085 195.826 3.35652C195.782 3.57448 195.536 3.76627 195.386 3.96679C195.237 3.74884 195.008 3.55705 194.955 3.32165C194.92 2.97672 194.92 2.62912 194.955 2.28419C194.978 2.13172 194.964 1.97623 194.917 1.82956C194.869 1.6829 194.788 1.54894 194.681 1.43793C194.573 1.32691 194.441 1.24175 194.295 1.18898C194.149 1.1362 193.992 1.11718 193.838 1.13338C193.134 1.13338 192.43 1.13338 191.726 1.13338C191.579 1.11639 191.431 1.13157 191.291 1.17781C191.151 1.22406 191.024 1.30024 190.917 1.40094C190.81 1.50165 190.727 1.62441 190.674 1.76049C190.62 1.89658 190.598 2.04263 190.608 2.18829C190.608 2.71138 190.608 3.23447 190.608 3.75756C190.608 8.75017 190.608 13.7428 190.608 18.7354C190.608 22.9201 192.72 25.4745 196.768 26.2156C197.718 26.3899 198.15 26.0499 198.194 25.0997C198.194 24.7771 198.194 24.4545 198.194 24.1407C198.194 22.4929 198.194 22.5016 196.689 21.9175C196.127 21.6908 195.653 21.2917 195.336 20.7787C195.019 20.2657 194.876 19.6658 194.929 19.0667C194.885 15.405 194.929 11.7521 194.929 8.0905C194.929 7.30586 194.929 6.52122 194.929 5.74531C194.929 5.49248 195.193 5.24837 195.325 5.00426C195.483 5.25708 195.782 5.50992 195.782 5.76275C195.782 9.85157 195.782 13.9404 195.782 18.0379C195.781 18.5873 195.828 19.1358 195.923 19.677C195.969 20.0711 196.149 20.438 196.434 20.7169C196.719 20.9959 197.091 21.1703 197.49 21.2113C197.935 21.2532 198.347 21.4612 198.643 21.7931C198.938 22.125 199.096 22.556 199.082 22.9986C199.131 23.7796 199.131 24.5628 199.082 25.3438C199.081 25.606 199.023 25.8649 198.913 26.1031C198.802 26.3414 198.642 26.5535 198.442 26.7252C198.242 26.8969 198.007 27.0243 197.753 27.0988C197.5 27.1733 197.233 27.1932 196.97 27.1572C194.993 27.0133 193.142 26.14 191.784 24.7099C190.425 23.2797 189.657 21.3967 189.631 19.4328C189.587 16.5907 189.631 13.7486 189.631 10.8978V10.9152Z" fill="white"/>
<path d="M142.701 9.19767C136.198 9.04947 132.062 14.8471 134.323 20.9062C134.323 20.9585 134.385 21.0195 134.376 21.0718C134.376 21.3508 134.306 21.6298 134.27 21.9437C134.015 21.7693 133.646 21.6472 133.54 21.4119C133.038 20.258 132.774 19.0159 132.766 17.7594C132.758 16.5028 133.004 15.2573 133.491 14.097C133.977 12.9366 134.695 11.8849 135.599 11.0043C136.504 10.1238 137.579 9.43233 138.758 8.97101C143.097 7.32327 148.086 8.4915 150.691 11.909C151.751 13.2503 152.417 14.854 152.619 16.5453C152.821 18.2365 152.55 19.9501 151.835 21.499C150.48 24.7771 147.814 26.4422 144.373 26.9653C142.954 27.2103 141.5 27.161 140.102 26.8203C138.704 26.4797 137.392 25.8551 136.25 24.9863C136.006 24.8267 135.789 24.6295 135.608 24.4022C135.502 24.254 135.538 23.9924 135.511 23.7832C135.722 23.7832 135.969 23.6699 136.145 23.7832C136.371 23.9144 136.579 24.0757 136.761 24.2627C140.325 27.1484 146.388 26.8781 149.442 23.5478C150.595 22.3699 151.368 20.8786 151.662 19.2639C151.957 17.6492 151.76 15.9842 151.096 14.4809C149.829 11.2116 147.206 9.59872 143.757 9.25C143.422 9.16281 143.07 9.19767 142.701 9.19767Z" fill="white"/>
<path d="M114.101 26.9653C112.341 26.9653 111.646 26.4858 111.056 24.8991C109.079 19.581 107.105 14.2571 105.134 8.92742C105.04 8.74702 104.978 8.55259 104.949 8.35202C104.949 8.18637 105.072 7.88125 105.178 7.87253C105.283 7.86269 105.39 7.8755 105.49 7.9101C105.59 7.9447 105.682 8.00027 105.758 8.07304C105.901 8.29063 106.007 8.5289 106.075 8.77921L111.883 24.4196C112.394 25.7971 112.763 26.0674 114.092 26.0674C115.421 26.0674 115.852 25.771 116.389 24.3848C118.36 19.0318 120.322 13.6701 122.32 8.31715C122.452 7.95099 122.989 7.36687 123.086 7.44533C123.719 7.74175 123.288 8.23869 123.147 8.63101C121.17 14.0421 119.178 19.4532 117.172 24.8643C116.565 26.5033 115.87 26.9653 114.101 26.9653Z" fill="white"/>
<path d="M180.25 17.9333C180.25 19.9297 180.25 21.9349 180.25 23.9314C180.25 25.3699 180.822 25.8407 182.442 25.8319C184.061 25.8232 184.536 25.335 184.545 23.9401C184.545 21.1241 184.545 18.3169 184.545 15.5009C184.533 15.2422 184.563 14.9833 184.633 14.7337C184.672 14.6622 184.729 14.6015 184.798 14.5574C184.867 14.5132 184.947 14.4869 185.029 14.4809C185.109 14.496 185.185 14.53 185.249 14.5801C185.313 14.6301 185.365 14.6948 185.398 14.7686C185.451 14.9645 185.469 15.1681 185.451 15.3701C185.451 18.2123 185.451 21.0544 185.451 23.8965C185.451 25.8581 184.483 26.7561 182.433 26.7648C180.382 26.7735 179.326 25.893 179.318 23.8791C179.318 19.8803 179.318 15.8758 179.318 11.8654C179.318 9.91256 180.268 9.04945 182.248 9.00586C183.498 9.00586 184.694 9.13664 185.178 10.4182C185.38 11.2245 185.457 12.0563 185.407 12.8855C185.407 12.9988 185.117 13.2516 185.029 13.2167C184.941 13.1819 184.606 12.9726 184.58 12.807C184.543 12.375 184.529 11.9414 184.536 11.508C184.542 11.2972 184.505 11.0874 184.427 10.8912C184.348 10.6951 184.231 10.5167 184.081 10.3667C183.932 10.2168 183.753 10.0985 183.556 10.0189C183.359 9.93937 183.147 9.90023 182.934 9.90384C182.635 9.90384 182.345 9.90384 182.054 9.90384C181.814 9.87205 181.569 9.89487 181.338 9.97058C181.108 10.0463 180.898 10.1729 180.724 10.3409C180.55 10.5088 180.417 10.7138 180.335 10.9401C180.253 11.1665 180.224 11.4084 180.25 11.6475C180.233 13.7573 180.25 15.8409 180.25 17.9333Z" fill="white"/>
<path d="M19.272 18.3866C19.272 21.1852 18.8848 21.6385 16.0864 22.1355C14.3842 22.466 12.6253 22.364 10.9736 21.839C7.8408 20.8364 5.9752 18.2297 5.6936 14.5506C5.456 11.3772 6.2744 8.63971 9.2136 6.93966C10.6132 6.07192 12.2309 5.61176 13.882 5.61176C15.5331 5.61176 17.1508 6.07192 18.5504 6.93966C18.7704 7.06172 18.8584 7.41045 19.0168 7.65456C18.7088 7.65456 18.348 7.80277 18.1368 7.65456C17.1463 7.08673 16.0486 6.72642 14.9118 6.59596C13.7751 6.46549 12.6233 6.56763 11.528 6.89607C10.2801 7.1787 9.14819 7.83021 8.28231 8.76433C7.41643 9.69844 6.85739 10.8711 6.6792 12.127C6.1424 15.3004 7.40082 18.779 9.77682 20.2262C12.2848 21.7519 14.9688 21.6211 17.644 20.7144C17.838 20.5873 18.0021 20.4203 18.1251 20.2247C18.2481 20.0291 18.3271 19.8096 18.3568 19.581C18.4624 18.7092 18.3568 17.8374 18.4096 16.9656C18.4096 16.6866 18.6824 16.4076 18.832 16.0937C19.0281 16.3328 19.1801 16.6044 19.2808 16.8958C19.3238 17.392 19.3208 17.891 19.272 18.3866V18.3866Z" fill="white"/>
<path d="M164.27 21.8216C165.117 21.8382 165.964 21.7886 166.804 21.6734C167.233 21.5929 167.642 21.4292 168.007 21.1918C168.372 20.9543 168.686 20.6478 168.932 20.2898C169.177 19.9318 169.349 19.5293 169.436 19.1055C169.524 18.6816 169.527 18.2447 169.444 17.8199C169.344 16.956 168.932 16.1572 168.284 15.5709C167.636 14.9846 166.795 14.6505 165.918 14.6303C165.04 14.6101 164.185 14.9052 163.51 15.461C162.835 16.0169 162.386 16.7959 162.246 17.6543C162.131 18.5261 162.246 19.3979 162.246 20.2697C162.246 20.5226 161.999 20.7579 161.858 20.9933C161.7 20.7928 161.41 20.5836 161.41 20.3743C161.323 19.1737 161.388 17.9671 161.603 16.7825C161.932 15.764 162.628 14.9011 163.558 14.3577C164.488 13.8144 165.587 13.6286 166.646 13.8357C167.753 14.0298 168.75 14.6182 169.451 15.49C170.151 16.3618 170.505 17.4571 170.447 18.5697C170.423 19.6414 169.985 20.6633 169.224 21.4254C168.463 22.1875 167.437 22.6318 166.355 22.6672C164.984 22.7456 163.608 22.7456 162.237 22.6672C162.034 22.6672 161.85 22.3708 161.656 22.2052C161.876 22.0744 162.087 21.8477 162.316 21.8303C162.985 21.778 163.662 21.8303 164.34 21.8303L164.27 21.8216Z" fill="white"/>
<path d="M138.09 17.9072C138.09 14.1496 140.923 12.0747 144.338 13.086C146.098 13.6091 147.206 15.065 147.356 17.2533C147.492 18.093 147.386 18.9536 147.052 19.7368C146.717 20.5199 146.167 21.194 145.464 21.6821C144.709 22.1671 143.837 22.4431 142.938 22.4815C142.039 22.5198 141.146 22.3191 140.351 21.9001C140.128 21.8239 139.93 21.6882 139.779 21.5078C139.663 21.2579 139.58 20.9942 139.533 20.7231C139.79 20.6925 140.05 20.6925 140.307 20.7231C141.062 21.062 141.854 21.3164 142.666 21.4816C144.918 21.6124 146.318 20.2001 146.467 17.8462C146.634 15.0563 144.707 13.3301 141.9 13.8271C141.423 13.9176 140.97 14.1012 140.565 14.367C140.161 14.6329 139.814 14.9758 139.544 15.3758C139.275 15.7757 139.089 16.2248 138.996 16.6968C138.903 17.1688 138.906 17.6543 139.005 18.1251C139.005 18.2733 139.119 18.4216 139.084 18.5523C139.002 18.7959 138.899 19.0322 138.776 19.2585C138.574 19.0667 138.274 18.9098 138.186 18.6744C138.116 18.4248 138.083 18.1662 138.09 17.9072V17.9072Z" fill="white"/>
<path d="M184.941 4.3678C184.99 3.80177 184.848 3.23556 184.535 2.7593C184.222 2.28303 183.758 1.92408 183.215 1.7396C182.673 1.55513 182.084 1.55573 181.542 1.74131C181 1.92688 180.536 2.28676 180.224 2.76366C179.913 3.22464 179.767 3.77543 179.808 4.32837C179.85 4.88131 180.076 5.40462 180.453 5.81502C180.848 6.22406 181.356 6.50784 181.914 6.63045C182.471 6.75305 183.053 6.70896 183.586 6.50375C183.875 6.44253 184.172 6.42781 184.466 6.46016C184.272 6.75658 184.14 7.19248 183.858 7.33198C182.973 7.69808 181.978 7.70283 181.09 7.3452C180.201 6.98756 179.492 6.29654 179.115 5.42271C178.943 4.98284 178.863 4.51292 178.879 4.0414C178.895 3.56988 179.008 3.10655 179.211 2.67946C179.413 2.25238 179.701 1.87044 180.056 1.55673C180.412 1.24302 180.828 1.00408 181.28 0.854375C181.727 0.705737 182.2 0.650347 182.669 0.691695C183.139 0.733042 183.594 0.870233 184.008 1.09463C184.421 1.31902 184.783 1.62575 185.071 1.99552C185.359 2.36529 185.566 2.79009 185.68 3.24316C185.783 3.75137 185.797 4.27313 185.724 4.78627C185.724 4.99551 185.407 5.17859 185.231 5.37039C185.099 5.12628 184.958 4.88218 184.844 4.62935C184.879 4.5596 184.941 4.45498 184.941 4.3678Z" fill="white"/>
<path d="M208.938 14.8819H212.74C212.97 14.8469 213.205 14.8469 213.435 14.8819C213.645 14.994 213.837 15.1349 214.007 15.3004C213.831 15.4661 213.664 15.7625 213.488 15.7712C212.001 15.7712 210.496 15.8409 209.009 15.7712C208.825 15.7469 208.65 15.6771 208.5 15.5683C208.35 15.4595 208.23 15.3152 208.151 15.1486C208.072 14.9819 208.037 14.7983 208.049 14.6147C208.06 14.431 208.118 14.2531 208.217 14.0973C208.449 13.6959 208.765 13.3478 209.143 13.076C209.521 12.8041 209.953 12.6145 210.41 12.5198C210.867 12.4251 211.339 12.4274 211.795 12.5265C212.252 12.6256 212.682 12.8192 213.057 13.0947C213.233 13.2604 213.224 13.6265 213.294 13.8968C213.04 13.9123 212.786 13.8767 212.546 13.7922C212.253 13.5728 211.911 13.4253 211.549 13.3618C211.186 13.2984 210.814 13.3207 210.462 13.4269C210.11 13.5332 209.789 13.7204 209.524 13.9733C209.259 14.2262 209.059 14.5375 208.938 14.8819V14.8819Z" fill="white"/>
</g>
<defs>
<clipPath id="clip0_1602_3">
<rect width="220" height="27.6279" fill="white"/>
</clipPath>
</defs>
</svg>
