<svg id="Слой_1" data-name="Слой 1" xmlns="http://www.w3.org/2000/svg" xmlns:xlink="http://www.w3.org/1999/xlink" viewBox="0 0 24.47 25.22"><defs><style>.cls-1{fill-rule:evenodd;fill:url(#Безымянный_градиент_2);}</style><linearGradient id="Безымянный_градиент_2" x1="456.81" y1="455.38" x2="481.28" y2="455.38" gradientUnits="userSpaceOnUse"><stop offset="0" stop-color="#7a7b7b"/><stop offset="1" stop-color="#4a4a4a"/></linearGradient></defs><title>telegram</title><path id="Send-2" class="cls-1" d="M480.23,442.83l-22.71,8.73a1.11,1.11,0,0,0,0,2.08l5.05,1.77a1.64,1.64,0,0,0,1.35-.14l11-6.65a.36.36,0,0,1,.44.56l-8.27,8.39a1.41,1.41,0,0,0-.47,1l0,8.66a.77.77,0,0,0,1.46.3l3-6.16a1.29,1.29,0,0,1,1.76-.43l5.39,3A1.17,1.17,0,0,0,480,463l1.27-19.47A.75.75,0,0,0,480.23,442.83Z" transform="translate(-456.81 -442.77)"/></svg>